:FULLY-SPECIFIED
:FORCE-ALL-JOINTS-BE-3DOF
:DEGREES
404
root 9.88763 16.7915 21.9949 7.59528 -0.999799 -7.92415
lfemur -44.048 2.17321 -12.1155
ltibia 29.6131 -0 0
lfoot -8.3664 10.805 -0.00642985
ltoes -12.8094 0 0
rfemur 18.9841 6.03077 33.5383
rtibia -0.189533 0 0
rfoot -6.64898 7.36506 0.0580157
rtoes -15.6489 0 0
lowerback -8.65213 3.34779 3.74733
upperback -0.63619 3.93667 3.63886
thorax 4.17057 1.98704 2.171
lowerneck -19.2932 -6.3876 -13.2779
upperneck 21.432 -8.31349 13.2584
head 11.3027 -3.34455 5.80096
lclavicle 6.90347e-16 -3.12563e-14 -7.87743e-31
lhumerus -55.1849 -9.73738 96.3277
lradius 27.0147 -0 0
lwrist 7.55158 0 0
lhand -7.19054 -20.8965 0.00427555
lfingers 7.12502 -0 0
lthumb 18.6863 8.20823 3.14086e-05
rclavicle 6.90347e-16 -3.12563e-14 -7.87743e-31
rhumerus -29.9055 14.589 -86.3744
rradius 38.9888 -0 0
rwrist -17.4034 0 0
rhand -29.4508 -23.6413 -0.00329018
rfingers 7.12502 -0 0
rthumb -2.78698 -53.6023 -0.00320933
405
root 9.88928 16.7819 22.0109 7.61884 -1.11445 -7.96783
lfemur -43.9607 2.07946 -12.0832
ltibia 28.6931 -0 0
lfoot -8.18717 10.7014 -0.00815589
ltoes -13.0612 0 0
rfemur 19.4548 5.98758 33.4866
rtibia -0.473162 0 0
rfoot -6.30688 7.38326 0.0449114
rtoes -15.6278 0 0
lowerback -8.71358 3.39004 3.78001
upperback -0.638188 3.98535 3.64645
thorax 4.20506 2.01179 2.16742
lowerneck -19.2787 -6.37124 -13.2879
upperneck 21.4424 -8.28948 13.2574
head 11.3006 -3.33513 5.80715
lclavicle 7.23969e-16 -3.07128e-14 -7.09218e-31
lhumerus -55.1587 -9.59546 96.266
lradius 26.9628 -0 0
lwrist 7.34263 0 0
lhand -7.021 -20.8947 0.00297197
lfingers 7.12502 -0 0
lthumb 18.8496 8.19739 -0.000470616
rclavicle 7.23969e-16 -3.07128e-14 -7.09218e-31
rhumerus -29.9468 14.4547 -86.4414
rradius 38.8004 -0 0
rwrist -17.2294 0 0
rhand -29.4138 -23.6798 -0.00316512
rfingers 7.12502 -0 0
rthumb -2.75133 -53.6413 -0.00308274
406
root 9.88832 16.7728 22.0053 7.63804 -1.22072 -7.99745
lfemur -43.8587 1.98984 -12.0724
ltibia 27.8378 -0 0
lfoot -8.02734 10.5998 -0.00898889
ltoes -13.2792 0 0
rfemur 19.8527 5.94386 33.417
rtibia -0.661594 0 0
rfoot -5.99141 7.38186 0.0330229
rtoes -15.6123 0 0
lowerback -8.76712 3.42476 3.80361
upperback -0.641152 4.02551 3.65083
thorax 4.23402 2.03219 2.16456
lowerneck -19.2675 -6.35339 -13.2955
upperneck 21.4558 -8.26315 13.2532
head 11.2998 -3.32472 5.81216
lclavicle 6.9521e-16 -3.01667e-14 -6.18693e-31
lhumerus -55.1027 -9.46434 96.2
lradius 26.905 -0 0
lwrist 7.13322 0 0
lhand -6.86826 -20.8956 0.00186429
lfingers 7.12502 -0 0
lthumb 18.9967 8.18524 -0.000816239
rclavicle 6.9521e-16 -3.01667e-14 -6.18693e-31
rhumerus -30.0015 14.3264 -86.5069
rradius 38.6208 -0 0
rwrist -17.0619 0 0
rhand -29.3809 -23.7254 -0.00293179
rfingers 7.12502 -0 0
rthumb -2.71948 -53.6875 -0.0028518
407
root 9.8846 16.7643 21.9771 7.65256 -1.31817 -8.01233
lfemur -43.7427 1.9048 -12.0842
ltibia 27.0528 -0 0
lfoot -7.88848 10.5006 -0.00893097
ltoes -13.4609 0 0
rfemur 20.1741 5.89956 33.329
rtibia -0.749806 0 0
rfoot -5.7046 7.35989 0.0226091
rtoes -15.6028 0 0
lowerback -8.81223 3.45161 3.81779
upperback -0.645121 4.05677 3.65181
thorax 4.25709 2.04807 2.16244
lowerneck -19.2598 -6.33403 -13.3003
upperneck 21.4724 -8.23444 13.2454
head 11.3001 -3.31329 5.8159
lclavicle 5.99786e-16 -2.96192e-14 -5.16484e-31
lhumerus -55.0156 -9.34429 96.1292
lradius 26.8408 -0 0
lwrist 6.92363 0 0
lhand -6.73354 -20.8992 0.000976049
lfingers 7.12502 -0 0
lthumb 19.1265 8.17179 -0.000997929
rclavicle 5.99786e-16 -2.96192e-14 -5.16484e-31
rhumerus -30.0698 14.205 -86.5707
rradius 38.4508 -0 0
rwrist -16.9019 0 0
rhand -29.3521 -23.7786 -0.00258412
rfingers 7.12502 -0 0
rthumb -2.69174 -53.7411 -0.00251076
408
root 9.87797 16.7566 21.9252 7.66213 -1.40635 -8.0118
lfemur -43.6134 1.8248 -12.1197
ltibia 26.3438 -0 0
lfoot -7.77218 10.4046 -0.00798994
ltoes -13.604 0 0
rfemur 20.4157 5.85457 33.2222
rtibia -0.732775 0 0
rfoot -5.44849 7.31638 0.0139077
rtoes -15.5994 0 0
lowerback -8.84838 3.47024 3.82216
upperback -0.650133 4.07878 3.64924
thorax 4.2739 2.05924 2.16103
lowerneck -19.2558 -6.31313 -13.3024
upperneck 21.4923 -8.20329 13.234
head 11.3018 -3.30082 5.81829
lclavicle 4.33414e-16 -2.90711e-14 -4.02992e-31
lhumerus -54.8965 -9.23555 96.0534
lradius 26.7698 -0 0
lwrist 6.71413 0 0
lhand -6.61804 -20.9055 0.000328521
lfingers 7.12502 -0 0
lthumb 19.2377 8.15707 -0.00100996
rclavicle 4.33414e-16 -2.90711e-14 -4.02992e-31
rhumerus -30.1521 14.0911 -86.6327
rradius 38.2914 -0 0
rwrist -16.7498 0 0
rhand -29.328 -23.8396 -0.00211787
rfingers 7.12502 -0 0
rthumb -2.6684 -53.8025 -0.00205568
409
root 9.86829 16.7496 21.8487 7.66645 -1.48484 -7.99519
lfemur -43.4715 1.7503 -12.18
ltibia 25.7164 -0 0
lfoot -7.68001 10.3122 -0.00617785
ltoes -13.7061 0 0
rfemur 20.5737 5.8087 33.0961
rtibia -0.605479 0 0
rfoot -5.22513 7.25033 0.00712879
rtoes -15.6026 0 0
lowerback -8.87503 3.48032 3.81634
upperback -0.656226 4.09117 3.64294
thorax 4.28411 2.06552 2.16034
lowerneck -19.2557 -6.29065 -13.3014
upperneck 21.5158 -8.16965 13.2186
head 11.3048 -3.28729 5.81925
lclavicle 1.91809e-16 -2.85233e-14 -2.787e-31
lhumerus -54.7442 -9.13837 95.9723
lradius 26.6914 -0 0
lwrist 6.505 0 0
lhand -6.52299 -20.9147 -5.97199e-05
lfingers 7.12502 -0 0
lthumb 19.3293 8.1411 -0.000848522
rclavicle 1.91809e-16 -2.85233e-14 -2.787e-31
rhumerus -30.2486 13.9853 -86.6928
rradius 38.1436 -0 0
rwrist -16.6064 0 0
rhand -29.3086 -23.9088 -0.00153098
rfingers 7.12502 -0 0
rthumb -2.64975 -53.8719 -0.00148469
410
root 9.85541 16.7434 21.7465 7.66522 -1.55318 -7.96184
lfemur -43.3176 1.68182 -12.2662
ltibia 25.1763 -0 0
lfoot -7.61354 10.224 -0.00350936
ltoes -13.7649 0 0
rfemur 20.6446 5.76165 32.9502
rtibia -0.362895 0 0
rfoot -5.03657 7.16078 0.00244809
rtoes -15.6126 0 0
lowerback -8.89166 3.48149 3.79997
upperback -0.663433 4.09357 3.63276
thorax 4.28734 2.06672 2.16035
lowerneck -19.2598 -6.26658 -13.2974
upperneck 21.5429 -8.13345 13.1992
head 11.3094 -3.27267 5.81869
lclavicle -1.29312e-16 -2.79767e-14 -1.44161e-31
lhumerus -54.5577 -9.05299 95.8855
lradius 26.6052 -0 0
lwrist 6.29653 0 0
lhand -6.4496 -20.9268 -0.000173205
lfingers 7.12502 -0 0
lthumb 19.4 8.1239 -0.000511783
rclavicle -1.29312e-16 -2.79767e-14 -1.44161e-31
rhumerus -30.3597 13.8885 -86.7508
rradius 38.0083 -0 0
rwrist -16.4724 0 0
rhand -29.2945 -23.9864 -0.000823911
rfingers 7.12502 -0 0
rthumb -2.63608 -53.9498 -0.000798356
411
root 9.83919 16.7381 21.6176 7.65819 -1.61093 -7.91108
lfemur -43.1525 1.61988 -12.3794
ltibia 24.7291 0 0
lfoot -7.57436 10.1405 0
ltoes -13.7781 0 0
rfemur 20.6248 5.71304 32.7841
rtibia 2.8625e-14 0 0
rfoot -4.88484 7.04674 0
rtoes -15.6296 0 0
lowerback -8.89771 3.47344 3.77266
upperback -0.671787 4.08564 3.61852
thorax 4.28325 2.06266 2.16108
lowerneck -19.2682 -6.24088 -13.2901
upperneck 21.5739 -8.09464 13.1756
head 11.3155 -3.25694 5.81653
lclavicle -5.34234e-16 -2.74323e-14 0
lhumerus -54.3357 -8.97961 95.7926
lradius 26.5106 0 0
lwrist 6.08899 0 0
lhand -6.39907 -20.9418 0
lfingers 7.12502 0 0
lthumb 19.4487 8.1055 0
rclavicle -5.34234e-16 -2.74323e-14 0
rhumerus -30.4857 13.8013 -86.8065
rradius 37.8865 0 0
rwrist -16.3485 0 0
rhand -29.2858 -24.0729 0
rfingers 7.12502 0 0
rthumb -2.62769 -54.0364 0
412
root 9.8582 16.7441 21.7669 7.64521 -1.65892 -7.84043
lfemur -42.965 1.56486 -12.5241
ltibia 24.3596 -0 0
lfoot -7.55712 10.0559 0.0040449
ltoes -13.7488 0 0
rfemur 20.5079 5.65552 32.5906
rtibia 0.510591 -0 0
rfoot -4.75817 6.90426 -0.00116379
rtoes -15.6607 0 0
lowerback -8.89341 3.45554 3.73274
upperback -0.682093 4.06671 3.59968
thorax 4.27114 2.05301 2.16283
lowerneck -19.2805 -6.21295 -13.28
upperneck 21.609 -8.05214 13.1471
head 11.323 -3.23974 5.8128
lclavicle -1.04451e-15 -2.68768e-14 1.62481e-31
lhumerus -54.0694 -8.91759 95.6936
lradius 26.4037 -0 0
lwrist 5.87315 0 0
lhand -6.36815 -20.9603 0.000373577
lfingers 7.12502 -0 0
lthumb 19.4785 8.08523 0.000621794
rclavicle -1.04451e-15 -2.68768e-14 1.62481e-31
rhumerus -30.633 13.7197 -86.8617
rradius 37.7716 -0 0
rwrist -16.2284 0 0
rhand -29.2823 -24.1732 0.000972384
rfingers 7.12502 -0 0
rthumb -2.6243 -54.1368 0.000940939
413
root 9.87927 16.7523 21.9291 7.62647 -1.69844 -7.74849
lfemur -42.7441 1.51677 -12.703
ltibia 24.0469 -0 0
lfoot -7.55502 9.96396 0.00830271
ltoes -13.6829 0 0
rfemur 20.2925 5.5824 32.3641
rtibia 1.18716 -0 0
rfoot -4.64338 6.73103 -0.00198698
rtoes -15.712 0 0
lowerback -8.87964 3.42767 3.67921
upperback -0.695028 4.03665 3.57594
thorax 4.25083 2.0377 2.16588
lowerneck -19.2959 -6.18231 -13.2677
upperneck 21.6483 -8.00505 13.1134
head 11.3317 -3.22078 5.80762
lclavicle -1.67412e-15 -2.62972e-14 3.49723e-31
lhumerus -53.752 -8.86589 95.589
lradius 26.2814 -0 0
lwrist 5.64033 0 0
lhand -6.35236 -20.9825 0.000852111
lfingers 7.12502 -0 0
lthumb 19.4938 8.06245 0.00128718
rclavicle -1.67412e-15 -2.62972e-14 3.49723e-31
rhumerus -30.8069 13.6393 -86.9179
rradius 37.6564 -0 0
rwrist -16.1056 0 0
rhand -29.2833 -24.2915 0.00211461
rfingers 7.12502 -0 0
rthumb -2.62527 -54.2551 0.00204518
414
root 9.90224 16.7626 22.1032 7.60224 -1.72976 -7.63622
lfemur -42.491 1.47555 -12.9145
ltibia 23.7882 -0 0
lfoot -7.56744 9.86519 0.0127296
ltoes -13.582 0 0
rfemur 19.9831 5.49409 32.1064
rtibia 2.02109 -0 0
rfoot -4.54039 6.52856 -0.0023821
rtoes -15.782 0 0
lowerback -8.85681 3.39024 3.61264
upperback -0.710428 3.99587 3.54755
thorax 4.22276 2.01696 2.1702
lowerneck -19.3144 -6.14906 -13.2532
upperneck 21.6916 -7.95357 13.0749
head 11.3414 -3.20014 5.80106
lclavicle -2.41598e-15 -2.56946e-14 5.57686e-31
lhumerus -53.3858 -8.82415 95.4791
lradius 26.1448 -0 0
lwrist 5.39169 0 0
lhand -6.3511 -21.0083 0.00142903
lfingers 7.12502 -0 0
lthumb 19.495 8.03725 0.00199111
rclavicle -2.41598e-15 -2.56946e-14 5.57686e-31
rhumerus -31.0062 13.5599 -86.9751
rradius 37.541 -0 0
rwrist -15.9804 0 0
rhand -29.2886 -24.4268 0.00340308
rfingers 7.12502 -0 0
rthumb -2.63039 -54.3903 0.00328998
415
root 9.92697 16.7749 22.2881 7.57277 -1.75311 -7.50459
lfemur -42.2065 1.44121 -13.157
ltibia 23.5808 -0 0
lfoot -7.59377 9.75993 0.0172785
ltoes -13.4478 0 0
rfemur 19.584 5.39089 31.8197
rtibia 3.00373 -0 0
rfoot -4.44914 6.29835 -0.00228502
rtoes -15.8694 0 0
lowerback -8.82535 3.34365 3.53363
upperback -0.728128 3.94481 3.51476
thorax 4.18734 1.99099 2.17575
lowerneck -19.3359 -6.11331 -13.2367
upperneck 21.7386 -7.89791 13.0317
head 11.3522 -3.17789 5.79321
lclavicle -3.26298e-15 -2.50701e-14 7.82366e-31
lhumerus -52.9732 -8.79197 95.3643
lradius 25.9949 -0 0
lwrist 5.12835 0 0
lhand -6.36377 -21.0376 0.0020955
lfingers 7.12502 -0 0
lthumb 19.4829 8.00971 0.00272719
rclavicle -3.26298e-15 -2.50701e-14 7.82366e-31
rhumerus -31.2297 13.4813 -87.033
rradius 37.4256 -0 0
rwrist -15.8532 0 0
rhand -29.298 -24.5779 0.00481151
rfingers 7.12502 -0 0
rthumb -2.63944 -54.5413 0.00465
